<?xml version="1.0" standalone="no"?>
<!DOCTYPE svg PUBLIC "-//W3C//DTD SVG 20010904//EN"
 "http://www.w3.org/TR/2001/REC-SVG-20010904/DTD/svg10.dtd">
<svg version="1.0" xmlns="http://www.w3.org/2000/svg"
 width="512.000000pt" height="512.000000pt" viewBox="0 0 512.000000 512.000000"
 preserveAspectRatio="xMidYMid meet">

<g transform="translate(0.000000,512.000000) scale(0.100000,-0.100000)"
fill="#000000" stroke="none">
<path d="M1313 5065 c-12 -8 -24 -27 -27 -43 -3 -15 -22 -218 -41 -452 -20
-234 -38 -435 -41 -448 l-4 -22 -252 2 -251 3 -13 44 c-16 54 -55 96 -109 117
-35 13 -78 15 -247 12 -203 -3 -205 -3 -245 -30 -25 -16 -49 -44 -62 -71 -21
-44 -22 -54 -19 -364 l3 -320 29 -37 c56 -74 64 -76 311 -76 210 0 222 1 260
23 44 25 85 87 85 130 l0 27 240 0 240 0 0 -32 c1 -80 -82 -2867 -86 -2904
l-5 -41 -72 -5 c-115 -8 -193 -61 -237 -161 -23 -53 -39 -232 -26 -301 12 -66
32 -76 144 -76 90 0 100 2 120 23 49 52 8 127 -68 127 l-40 0 0 84 c0 92 14
123 67 145 21 8 169 11 541 9 l512 -3 32 -33 c31 -31 33 -37 37 -117 l3 -85
-430 0 c-478 0 -465 2 -478 -67 -5 -26 -1 -37 19 -57 l26 -26 485 0 485 0 21
27 c20 26 22 37 18 173 -3 126 -6 151 -25 186 -34 63 -66 97 -119 124 -42 21
-66 25 -161 28 -104 3 -113 5 -113 23 0 58 -80 2705 -85 2822 l-6 137 210 0
211 0 0 -207 c0 -232 7 -264 69 -316 55 -46 82 -49 437 -45 l331 3 40 27 c22
15 51 44 64 65 23 36 24 47 27 256 l3 217 390 0 389 0 0 -412 0 -413 -312
-312 -313 -313 -96 0 c-83 0 -101 -3 -130 -23 -53 -35 -69 -77 -69 -183 l0
-91 -56 -7 c-70 -8 -110 -28 -134 -69 -29 -47 -29 -247 0 -294 35 -57 68 -68
218 -68 l134 0 24 28 c27 32 29 45 13 81 -16 35 -57 46 -165 46 l-94 0 0 60 0
60 1025 0 1025 0 0 -60 0 -60 -774 0 c-538 0 -783 -3 -805 -11 -78 -27 -63
-129 21 -144 18 -3 386 -5 818 -3 752 3 786 4 817 22 56 34 73 80 73 195 0
112 -10 142 -59 183 -16 14 -48 28 -70 32 l-41 6 0 93 c0 107 -16 149 -69 184
-29 20 -47 23 -125 23 l-91 0 -308 308 -307 307 0 418 0 417 229 0 c227 0 230
0 257 23 52 45 43 64 -127 283 -85 109 -162 207 -171 216 -15 15 -35 18 -110
18 -83 0 -101 4 -192 39 -56 22 -611 243 -1235 490 l-1135 451 -116 0 c-87 0
-121 -4 -137 -15z m167 -155 c0 -24 57 -680 65 -757 l6 -53 -95 0 -96 0 0 28
c0 36 59 728 66 770 4 26 10 32 29 32 18 0 25 -5 25 -20z m1150 -415 l983
-390 -563 -5 -562 -5 -19 -24 c-26 -32 -24 -67 6 -96 l24 -25 828 0 828 -1 88
-113 c48 -63 87 -117 87 -120 0 -3 -818 -5 -1817 -4 l-1818 3 -3 118 -3 117
781 0 781 0 24 25 c32 31 32 69 0 100 l-24 25 -276 0 c-151 0 -275 4 -275 8 0
15 -60 698 -65 740 -3 24 -1 42 4 40 5 -2 451 -178 991 -393z m-2102 -373 c9
-7 12 -73 10 -298 l-3 -289 -190 0 -190 0 -3 284 c-2 201 1 288 9 297 9 11 50
14 183 14 94 0 177 -4 184 -8z m982 -567 c0 -3 -43 -62 -95 -132 l-95 -126 0
131 0 132 95 0 c52 0 95 -2 95 -5z m1460 -189 c0 -164 -3 -197 -16 -210 -13
-14 -56 -16 -319 -16 -263 0 -306 2 -319 16 -13 13 -16 46 -16 210 l0 194 335
0 335 0 0 -194z m-1374 -423 c-4 -4 -226 157 -226 164 0 7 51 76 149 203 l66
85 7 -225 c4 -123 6 -225 4 -227z m-170 -69 c57 -41 104 -77 104 -79 0 -6
-231 -325 -235 -325 -5 0 5 385 11 438 3 23 8 42 11 42 3 0 52 -34 109 -76z
m193 -646 c0 -82 -1 -148 -4 -148 -9 0 -259 186 -262 195 -1 6 55 89 125 185
l127 175 6 -130 c4 -71 7 -196 8 -277z m2281 87 l0 -205 -207 0 -208 0 205
205 c113 113 206 205 207 205 2 0 3 -92 3 -205z m355 -5 l200 -200 -203 0
-202 0 0 200 c0 110 1 200 3 200 1 0 92 -90 202 -200z m-2880 -245 c39 -28 96
-70 127 -93 l58 -43 -143 -179 c-78 -98 -144 -179 -147 -179 -3 -1 -2 90 1
201 4 112 7 238 8 281 1 60 4 76 14 71 6 -5 44 -31 82 -59z m3425 -180 l0 -75
-835 0 -835 0 0 75 0 75 835 0 835 0 0 -75z m-3155 -443 l7 -293 -164 117
c-89 65 -164 119 -166 120 -2 1 65 88 149 193 119 148 155 188 160 174 3 -10
10 -150 14 -311z m-224 -313 l140 -101 -34 -42 c-18 -22 -91 -113 -162 -201
l-128 -160 7 220 c3 121 6 260 6 309 0 75 2 87 15 82 9 -3 79 -51 156 -107z
m247 -545 c-3 -2 -65 -3 -138 -2 l-132 3 129 161 128 161 9 -159 c4 -88 6
-161 4 -164z"/>
</g>
</svg>
