<?xml version="1.0" standalone="no"?>
<!DOCTYPE svg PUBLIC "-//W3C//DTD SVG 20010904//EN"
 "http://www.w3.org/TR/2001/REC-SVG-20010904/DTD/svg10.dtd">
<svg version="1.0" xmlns="http://www.w3.org/2000/svg"
 width="512.000000pt" height="512.000000pt" viewBox="0 0 512.000000 512.000000"
 preserveAspectRatio="xMidYMid meet">

<g transform="translate(0.000000,512.000000) scale(0.100000,-0.100000)"
fill="#000000" stroke="none">
<path d="M1325 5026 c-545 -90 -989 -461 -1167 -974 -58 -170 -72 -257 -73
-472 0 -169 3 -209 23 -300 29 -130 80 -268 140 -382 l46 -87 -59 -310 c-64
-336 -64 -352 -13 -380 24 -14 54 -10 373 48 190 35 356 61 368 58 12 -3 59
-19 105 -36 237 -88 545 -103 807 -41 44 10 88 22 97 25 16 6 17 -38 20 -717
l3 -723 26 -56 c33 -71 87 -125 158 -158 l56 -26 951 -3 951 -2 193 -200 c107
-112 203 -203 216 -206 35 -9 72 3 86 29 9 14 15 82 18 197 l5 175 80 6 c136
10 225 66 281 176 l29 58 0 845 0 845 -22 47 c-30 66 -104 141 -166 169 l-52
24 -1057 3 -1057 2 64 95 c169 249 249 509 250 815 0 310 -72 557 -238 808
-216 326 -520 537 -907 629 -130 31 -405 41 -535 19z m477 -166 c397 -81 730
-337 913 -701 95 -191 135 -362 135 -584 0 -350 -123 -654 -367 -906 -154
-159 -322 -266 -523 -333 -163 -54 -267 -69 -455 -63 -178 5 -279 26 -452 93
l-92 35 -302 -55 c-166 -31 -304 -55 -305 -53 -2 2 19 120 46 263 28 142 50
267 50 278 0 10 -22 57 -49 105 -186 329 -218 713 -90 1078 148 420 520 744
964 842 155 35 359 35 527 1z m2942 -2360 c54 -12 87 -38 114 -90 l22 -44 0
-796 c0 -753 -1 -797 -19 -836 -31 -69 -74 -87 -214 -94 -157 -7 -157 -6 -157
-174 l-1 -121 -142 145 -142 145 -970 5 c-1078 6 -1006 1 -1057 72 l-23 33 -3
746 -2 747 77 42 c98 54 170 103 257 174 l69 56 1076 0 c610 0 1093 -4 1115
-10z"/>
<path d="M1465 4596 c-27 -7 -65 -20 -84 -30 -49 -26 -123 -104 -149 -157 -42
-88 -43 -118 -11 -498 36 -415 40 -432 125 -510 169 -155 430 -74 483 150 17
71 63 657 59 739 -9 147 -106 269 -245 305 -67 18 -110 18 -178 1z m142 -147
c39 -15 88 -64 109 -111 17 -38 17 -49 -10 -376 -17 -207 -33 -353 -42 -379
-29 -81 -126 -117 -193 -71 -70 48 -69 42 -101 417 -32 362 -31 382 9 447 38
62 157 100 228 73z"/>
<path d="M1459 3096 c-158 -56 -236 -215 -182 -372 22 -66 101 -145 167 -167
98 -33 192 -19 272 42 99 76 138 207 95 322 -53 141 -219 223 -352 175z m153
-161 c10 -4 27 -23 39 -42 63 -101 -29 -228 -142 -194 -102 31 -129 162 -46
225 46 35 84 38 149 11z"/>
<path d="M2475 2260 c-59 -18 -74 -82 -30 -125 l24 -25 534 0 c525 0 535 0
561 21 32 25 35 75 7 110 l-19 24 -524 2 c-292 1 -536 -2 -553 -7z"/>
<path d="M2454 1842 c-16 -11 -34 -48 -34 -72 0 -11 11 -32 25 -45 l24 -25
1046 0 1046 0 24 25 c30 30 32 64 4 99 l-20 26 -1052 0 c-579 0 -1057 -4
-1063 -8z"/>
<path d="M2441 1414 c-12 -15 -21 -37 -21 -49 0 -12 9 -34 21 -49 l20 -26
1054 0 1054 0 20 26 c27 34 27 64 0 98 l-20 26 -1054 0 -1054 0 -20 -26z"/>
<path d="M2445 1015 c-43 -42 -29 -105 26 -124 44 -15 2043 -16 2087 0 35 12
56 54 46 93 -14 59 47 56 -1092 56 l-1043 0 -24 -25z"/>
<path d="M3845 5016 c-239 -46 -446 -211 -538 -432 -110 -260 -56 -553 140
-766 87 -95 117 -143 137 -223 23 -87 21 -123 -9 -147 -43 -33 -65 -89 -65
-163 0 -99 40 -163 122 -194 18 -7 29 -22 38 -56 32 -115 156 -206 282 -208
82 -1 155 24 211 74 44 38 97 126 97 159 0 11 14 21 39 28 51 16 87 46 111 93
45 87 34 182 -27 250 -34 38 -35 42 -29 94 7 65 37 148 68 191 13 18 54 67 91
110 81 94 116 153 153 259 26 73 28 93 28 220 0 127 -2 147 -27 220 -83 238
-275 417 -514 479 -87 23 -225 28 -308 12z m288 -160 c143 -45 277 -158 341
-287 38 -77 66 -184 66 -255 0 -131 -61 -276 -168 -398 -116 -132 -167 -235
-179 -362 l-6 -64 -68 0 -69 0 0 213 0 213 75 74 c63 62 75 80 75 107 0 43
-30 73 -73 73 -27 0 -43 -11 -92 -60 l-59 -59 -62 59 c-52 50 -68 60 -97 60
-26 0 -41 -7 -56 -26 -36 -46 -28 -69 54 -153 l75 -77 0 -212 0 -212 -70 0
-70 0 0 46 c0 121 -58 247 -168 367 -128 139 -173 245 -173 403 0 112 12 166
59 264 68 140 221 260 375 296 74 17 220 12 290 -10z m136 -1540 c7 -8 11 -30
9 -48 l-3 -33 -302 -3 -303 -2 -6 24 c-9 38 -1 60 26 67 14 4 147 7 296 8 225
1 274 -1 283 -13z m-169 -245 c0 -4 -10 -21 -22 -36 -40 -52 -129 -71 -188
-40 -28 15 -70 60 -70 76 0 5 63 9 140 9 77 0 140 -4 140 -9z"/>
<path d="M936 1874 c-87 -21 -190 -80 -256 -146 -62 -62 -130 -180 -130 -227
0 -114 99 -211 216 -211 56 0 133 47 169 105 58 90 146 112 211 52 28 -26 37
-42 41 -77 6 -61 -22 -105 -85 -131 -86 -37 -97 -44 -148 -94 -70 -70 -97
-140 -98 -260 -1 -107 20 -158 85 -205 73 -52 174 -46 256 15 36 28 72 93 73
130 0 15 15 28 53 47 28 14 75 46 103 71 233 210 244 577 24 797 -124 123
-333 178 -514 134z m260 -155 c141 -53 228 -172 241 -330 10 -117 -24 -214
-105 -302 -42 -45 -146 -107 -178 -107 -23 0 -38 -33 -43 -97 -7 -76 -22 -93
-68 -77 -27 9 -28 11 -25 74 6 115 53 178 157 210 56 18 137 102 158 164 58
171 -50 347 -234 381 -53 10 -140 -11 -192 -46 -25 -17 -62 -54 -81 -84 -39
-58 -64 -72 -96 -55 -49 26 -31 88 52 176 105 111 268 147 414 93z"/>
<path d="M982 545 c-61 -19 -103 -55 -136 -114 -86 -158 29 -351 209 -351 180
0 295 193 209 351 -34 61 -76 95 -140 115 -57 17 -86 17 -142 -1z m119 -148
c21 -16 39 -51 39 -77 0 -30 -53 -80 -85 -80 -32 0 -85 50 -85 80 0 49 38 89
85 89 17 0 37 -5 46 -12z"/>
</g>
</svg>
