<?xml version="1.0" standalone="no"?>
<!DOCTYPE svg PUBLIC "-//W3C//DTD SVG 20010904//EN"
 "http://www.w3.org/TR/2001/REC-SVG-20010904/DTD/svg10.dtd">
<svg version="1.0" xmlns="http://www.w3.org/2000/svg"
 width="512.000000pt" height="512.000000pt" viewBox="0 0 512.000000 512.000000"
 preserveAspectRatio="xMidYMid meet">

<g transform="translate(0.000000,512.000000) scale(0.100000,-0.100000)"
fill="#000000" stroke="none">
<path d="M4050 5098 c-27 -7 -147 -121 -540 -514 l-505 -504 -1167 0 -1167 0
-3 386 -3 386 -24 19 c-47 38 -191 18 -320 -44 -93 -45 -206 -159 -254 -254
-72 -146 -68 -30 -65 -1878 l3 -1660 24 -70 c47 -140 160 -272 285 -334 129
-63 74 -61 1371 -61 l1180 0 -222 -222 c-246 -246 -258 -264 -210 -312 l26
-26 1306 0 1306 0 24 25 25 24 0 1301 c0 814 -4 1308 -10 1319 -5 10 -22 24
-39 30 -42 18 -67 1 -191 -123 l-105 -106 -5 775 -5 774 -23 23 c-22 23 -26
23 -324 26 l-302 3 222 222 c143 144 227 235 237 259 21 52 19 133 -5 183 -12
25 -82 102 -173 192 -120 118 -161 153 -192 162 -48 13 -107 13 -155 -1z m252
-276 c175 -175 174 -169 53 -291 l-85 -86 -172 173 -173 172 86 85 c122 121
116 122 291 -53z m-3782 -1237 c0 -1132 0 -1145 20 -1165 38 -38 100 -22 119
31 8 22 11 252 11 750 l0 719 1087 0 1087 0 -217 -218 c-119 -120 -217 -225
-217 -235 0 -54 54 -97 101 -78 13 5 258 244 544 530 l520 521 172 -172 173
-173 -777 -777 -778 -778 -172 172 -173 173 160 160 c174 176 184 192 135 240
-49 50 -62 42 -273 -168 l-194 -194 -127 -359 -127 -359 -143 -5 c-135 -5
-144 -6 -162 -29 -25 -31 -24 -69 3 -98 l21 -23 1069 0 1069 0 24 25 c30 29
32 64 6 96 l-19 24 -758 5 -757 5 224 78 224 79 780 779 780 779 333 0 332 0
0 -797 0 -798 -550 -550 c-475 -475 -550 -554 -550 -580 0 -39 35 -75 74 -75
28 0 105 74 703 672 l673 673 0 -332 0 -331 -84 -3 c-98 -5 -126 -21 -126 -76
0 -58 26 -73 125 -73 l85 0 0 -115 0 -115 -82 0 c-96 0 -128 -19 -128 -76 0
-54 36 -74 131 -74 l79 0 0 -115 0 -115 -85 0 c-99 0 -125 -15 -125 -73 0 -55
28 -71 126 -76 l84 -3 0 -108 0 -108 -84 -3 c-98 -5 -126 -21 -126 -76 0 -58
26 -73 125 -73 l85 0 0 -180 0 -180 -1152 0 -1153 0 393 393 c223 223 392 400
392 410 0 22 -18 59 -34 69 -6 4 -26 8 -45 8 -31 0 -50 -15 -196 -160 l-161
-160 -1245 0 c-1340 0 -1298 -2 -1401 51 -59 30 -140 115 -171 179 -73 149
-51 311 59 446 66 82 210 154 308 154 33 0 52 6 73 24 l28 24 0 301 c0 296 0
301 -22 322 -27 27 -75 29 -103 4 -19 -17 -20 -30 -20 -271 l0 -253 -42 -11
c-122 -32 -192 -66 -276 -137 l-52 -45 0 1409 c0 974 3 1428 11 1468 20 108
89 217 176 277 52 35 127 67 161 68 l22 0 0 -1145z m3475 925 l170 -170 -70
-70 -70 -70 -172 172 -173 173 67 67 c37 38 70 68 73 68 3 0 82 -76 175 -170z
m-1788 -2052 c-7 -4 -54 -22 -106 -39 l-93 -31 -71 70 -70 70 38 107 38 107
138 -138 c94 -94 134 -141 126 -146z"/>
<path d="M4038 1082 c-408 -408 -428 -429 -428 -464 0 -28 6 -42 26 -57 26
-21 37 -21 450 -21 301 0 430 3 449 12 16 7 29 24 36 47 6 23 9 183 7 454 l-3
419 -24 19 c-13 10 -37 19 -54 19 -28 0 -78 -47 -459 -428z m392 -112 l0 -280
-282 0 -283 0 280 280 c154 154 281 280 282 280 2 0 3 -126 3 -280z"/>
</g>
</svg>
